<svg width="32" height="33" viewBox="0 0 32 33" fill="none" xmlns="http://www.w3.org/2000/svg">
<path d="M26 2.5H30V6.5H26V2.5ZM26 8.5H30V12.5H26V8.5ZM20 2.5H24V6.5H20V2.5ZM20 8.5H24V12.5H20V8.5ZM28 20.5H14V22.5H16V26.5H14V28.5H23V26.5H18V22.5H28C28.5304 22.5 29.0391 22.2893 29.4142 21.9142C29.7893 21.5391 30 21.0304 30 20.5V14.5H28V20.5ZM6 6.5H18V4.5H6C5.46957 4.5 4.96086 4.71071 4.58579 5.08579C4.21071 5.46086 4 5.96957 4 6.5V12.5H6V6.5ZM10 14.5H4C3.46957 14.5 2.96086 14.7107 2.58579 15.0858C2.21071 15.4609 2 15.9696 2 16.5V28.5C2 29.0304 2.21071 29.5391 2.58579 29.9142C2.96086 30.2893 3.46957 30.5 4 30.5H10C10.5304 30.5 11.0391 30.2893 11.4142 29.9142C11.7893 29.5391 12 29.0304 12 28.5V16.5C12 15.9696 11.7893 15.4609 11.4142 15.0858C11.0391 14.7107 10.5304 14.5 10 14.5ZM10 28.5H4V16.5H10V28.5Z" fill="#1876F2"/>
</svg>
