<svg width="20" height="20" viewBox="0 0 20 20" fill="none" xmlns="http://www.w3.org/2000/svg">
<path d="M16.25 1.25H18.75V3.75H16.25V1.25ZM16.25 5H18.75V7.5H16.25V5ZM12.5 1.25H15V3.75H12.5V1.25ZM12.5 5H15V7.5H12.5V5ZM17.5 12.5H8.75V13.75H10V16.25H8.75V17.5H14.375V16.25H11.25V13.75H17.5C17.8315 13.75 18.1495 13.6183 18.3839 13.3839C18.6183 13.1495 18.75 12.8315 18.75 12.5V8.75H17.5V12.5ZM3.75 3.75H11.25V2.5H3.75C3.41848 2.5 3.10054 2.6317 2.86612 2.86612C2.6317 3.10054 2.5 3.41848 2.5 3.75V7.5H3.75V3.75ZM6.25 8.75H2.5C2.16848 8.75 1.85054 8.8817 1.61612 9.11612C1.3817 9.35054 1.25 9.66848 1.25 10V17.5C1.25 17.8315 1.3817 18.1495 1.61612 18.3839C1.85054 18.6183 2.16848 18.75 2.5 18.75H6.25C6.58152 18.75 6.89946 18.6183 7.13388 18.3839C7.3683 18.1495 7.5 17.8315 7.5 17.5V10C7.5 9.66848 7.3683 9.35054 7.13388 9.11612C6.89946 8.8817 6.58152 8.75 6.25 8.75ZM6.25 17.5H2.5V10H6.25V17.5Z" fill="#596473"/>
</svg>
