<svg width="18" height="18" viewBox="0 0 18 18" fill="none" xmlns="http://www.w3.org/2000/svg">
<path fill-rule="evenodd" clip-rule="evenodd" d="M16.1543 9C16.1543 8.85082 16.095 8.70774 15.9895 8.60225C15.8841 8.49676 15.741 8.4375 15.5918 8.4375L2.2493 8.4465C2.17543 8.4466 2.1023 8.46125 2.03409 8.4896C1.96589 8.51796 1.90393 8.55948 1.85177 8.61178C1.79961 8.66409 1.75826 8.72615 1.73008 8.79443C1.7019 8.86272 1.68745 8.93588 1.68755 9.00975C1.68765 9.08362 1.70229 9.15674 1.73065 9.22495C1.75901 9.29316 1.80053 9.35511 1.85283 9.40728C1.90513 9.45944 1.9672 9.50079 2.03548 9.52897C2.10376 9.55715 2.17693 9.5716 2.2508 9.5715L15.5925 9.5625C15.7416 9.5623 15.8845 9.50295 15.9898 9.39748C16.0951 9.29201 16.1543 9.14905 16.1543 9Z" fill="#2998E5"/>
<path fill-rule="evenodd" clip-rule="evenodd" d="M10.112 3.35249C10.0066 3.45786 9.94726 3.60078 9.94711 3.74984C9.94697 3.8989 10.006 4.04193 10.1112 4.14749L14.9547 8.99999L10.1112 13.8525C10.0088 13.9586 9.9522 14.1007 9.95355 14.2482C9.9549 14.3957 10.0141 14.5368 10.1185 14.641C10.2228 14.7453 10.3639 14.8043 10.5114 14.8056C10.6589 14.8068 10.801 14.75 10.907 14.6475L16.148 9.39749C16.2533 9.29202 16.3125 9.14906 16.3125 8.99999C16.3125 8.85093 16.2533 8.70796 16.148 8.60249L10.907 3.35249C10.8015 3.24716 10.6586 3.18799 10.5095 3.18799C10.3604 3.18799 10.2175 3.24716 10.112 3.35249Z" fill="#2998E5"/>
</svg>
