<svg width="83" height="59" viewBox="0 0 83 59" fill="none" xmlns="http://www.w3.org/2000/svg">
<g clip-path="url(#clip0_4617_10032)">
<path d="M76.1162 59C77.0459 59 77.9659 58.8119 78.8208 58.447C79.6757 58.0821 80.4477 57.5479 81.0904 56.8768C81.7331 56.2056 82.233 55.4114 82.56 54.5419C82.8871 53.6724 83.0345 52.7458 82.9933 51.8179C82.7668 46.7001 79.5113 39.3654 70.638 32.741C58.3261 23.5498 66.4435 2.56305 50.2821 0.37159C23.7177 -3.2302 28.7432 20.327 12.3402 28.9156C1.899 34.3823 0.000684968 45.0797 0 52.1331C0.00170695 53.9556 0.727817 55.7028 2.01866 56.9906C3.3095 58.2783 5.05939 59.0011 6.88351 59H76.1162Z" fill="#F3F5FD"/>
<path d="M10.7156 58.3819C8.78538 57.7842 6.91268 57.0032 5.20643 54.8173C4.85627 54.3695 4.52721 53.7956 4.71914 53.2596C4.86353 52.8561 5.28081 52.5977 5.70549 52.5316C5.86351 52.5084 6.0237 52.5038 6.18278 52.5179C6.1836 52.5179 6.18442 52.5179 6.1847 52.5179C6.42931 52.5429 6.6711 52.5903 6.90706 52.6594L6.97447 52.6786C8.1007 52.9985 9.1735 53.4828 10.1582 54.1157C10.2474 54.1727 10.3533 54.1978 10.4587 54.1869C10.564 54.176 10.6625 54.1299 10.7382 54.0559C10.814 53.982 10.8624 53.8846 10.8756 53.7796C10.8889 53.6747 10.8662 53.5683 10.8112 53.4779C10.7108 53.314 10.5939 53.1608 10.4623 53.0206C10.2684 52.8179 10.0559 52.6337 9.82763 52.4705C9.52419 52.2493 9.20034 52.0521 8.88361 51.85C7.70605 51.1005 6.59047 50.258 5.54754 49.3305C4.80298 48.6678 4.07486 47.9324 3.72101 47.0007C3.55839 46.5723 3.48442 46.0783 3.6784 45.6632C3.99842 44.9812 4.9049 44.7905 5.64631 44.932C6.94529 45.1806 7.98301 46.132 8.90333 47.0802C9.66653 47.8682 10.5216 48.7408 11.618 48.7892C11.8049 48.8066 11.9929 48.769 12.1586 48.6808C12.4713 48.4915 12.5517 48.053 12.4402 47.7048C12.3287 47.3566 12.0704 47.0784 11.8218 46.8113C10.374 45.26 8.94977 43.6462 8.01 41.746C7.07022 39.8458 6.65376 37.6011 7.30709 35.5831C7.48041 34.9839 7.79912 34.4368 8.23494 33.9903C8.68456 33.562 9.31308 33.293 9.92914 33.3751C10.7685 33.4854 11.4006 34.1933 11.826 34.9239C13.2877 37.4309 13.1985 40.5031 13.6102 43.3748C13.7254 44.1789 13.8932 45.0036 14.3723 45.6655C14.4164 45.7292 14.4738 45.7827 14.5405 45.8222C14.9349 46.0505 15.289 45.5904 15.4372 45.1997C16.0221 43.6547 16.1681 41.8874 17.215 40.6089C17.6145 40.1221 18.18 39.7151 18.8097 39.7192C19.5791 39.7246 20.2379 40.3666 20.4624 41.1016C20.687 41.8367 20.5526 42.6357 20.3117 43.3659C19.8651 44.7199 19.0651 45.936 18.1218 47.0054C17.6245 47.5698 17.0624 48.1402 16.9132 48.8767C16.8675 49.127 16.8867 49.3848 16.9687 49.6256C17.0508 49.8665 17.1932 50.0824 17.3823 50.2528C17.4707 50.3296 17.5737 50.388 17.6851 50.4243C17.7965 50.4607 17.914 50.4744 18.0308 50.4647C18.2815 50.423 18.5205 50.3285 18.7319 50.1876C18.8243 50.1351 18.917 50.0817 19.0103 50.0294C19.378 49.8203 19.7458 49.6109 20.1137 49.4012C21.0486 48.8682 22.1777 48.3236 23.1518 48.7826C23.3926 48.9054 23.6043 49.0782 23.7727 49.2896C23.941 49.501 24.062 49.746 24.1276 50.0081C24.2645 50.4885 24.2645 50.9975 24.1276 51.4779C23.8374 52.4771 22.0088 55.2578 21.2545 55.975C20.3743 56.8138 17.3197 60.4269 10.7156 58.3819Z" fill="#C1D8ED"/>
<path d="M63.4693 49.8111H25.8008V1.22437H55.4526L63.4693 9.68882V49.8111Z" fill="#245799"/>
<path d="M55.4531 1.00867V9.47312H63.4698L55.4531 1.00867Z" fill="#F3F5FD"/>
<path d="M60.0539 14.05H29.2148V15.1553H60.0539V14.05Z" fill="white"/>
<path d="M60.0539 17.6884H29.2148V18.7936H60.0539V17.6884Z" fill="white"/>
<path d="M60.0539 21.3268H29.2148V22.432H60.0539V21.3268Z" fill="white"/>
<path d="M60.0539 24.9651H29.2148V26.0703H60.0539V24.9651Z" fill="white"/>
<path d="M60.0539 28.6035H29.2148V29.7088H60.0539V28.6035Z" fill="white"/>
<path d="M60.0539 32.2419H29.2148V33.3472H60.0539V32.2419Z" fill="white"/>
<path d="M60.0539 35.8802H29.2148V36.9855H60.0539V35.8802Z" fill="white"/>
<path d="M60.0539 39.5188H29.2148V40.624H60.0539V39.5188Z" fill="white"/>
<path d="M60.0539 43.1571H29.2148V44.2623H60.0539V43.1571Z" fill="white"/>
<path d="M48.8513 12.6155H47.6797V46.8649H48.8513V12.6155Z" fill="#245799"/>
<path d="M51.3513 12.6155H50.1797V46.8649H51.3513V12.6155Z" fill="#245799"/>
<path d="M53.8513 12.6155H52.6797V46.8649H53.8513V12.6155Z" fill="#245799"/>
<path d="M56.3513 12.6155H55.1797V46.8649H56.3513V12.6155Z" fill="#245799"/>
<path d="M58.8513 12.6155H57.6797V46.8649H58.8513V12.6155Z" fill="#245799"/>
<path d="M63.4685 53.3069C68.4681 53.3069 72.5211 49.2576 72.5211 44.2624C72.5211 39.2673 68.4681 35.2179 63.4685 35.2179C58.469 35.2179 54.416 39.2673 54.416 44.2624C54.416 49.2576 58.469 53.3069 63.4685 53.3069Z" fill="white"/>
<path d="M66.9723 42.6608H66.4733V41.5469C66.4733 40.7508 66.1567 39.9873 65.5933 39.4244C65.0298 38.8614 64.2657 38.5452 63.4688 38.5452C62.672 38.5452 61.9078 38.8614 61.3444 39.4244C60.781 39.9873 60.4644 40.7508 60.4644 41.5469V42.6608H59.9654C59.7373 42.6608 59.5186 42.7513 59.3573 42.9124C59.1961 43.0735 59.1055 43.2921 59.1055 43.5199V49.1203C59.1055 49.3482 59.1961 49.5667 59.3573 49.7278C59.5186 49.889 59.7373 49.9795 59.9654 49.9795H66.9723C67.0852 49.9795 67.1971 49.9572 67.3014 49.9141C67.4057 49.8709 67.5005 49.8076 67.5803 49.7278C67.6602 49.648 67.7235 49.5533 67.7667 49.4491C67.8099 49.3449 67.8321 49.2331 67.8321 49.1203V43.5199C67.8321 43.4071 67.8099 43.2954 67.7667 43.1912C67.7235 43.0869 67.6602 42.9922 67.5803 42.9124C67.5005 42.8326 67.4057 42.7694 67.3014 42.7262C67.1971 42.683 67.0852 42.6608 66.9723 42.6608ZM61.4418 41.5469C61.4418 41.0097 61.6554 40.4944 62.0356 40.1145C62.4158 39.7346 62.9315 39.5212 63.4693 39.5212C64.007 39.5212 64.5227 39.7346 64.9029 40.1145C65.2832 40.4944 65.4968 41.0097 65.4968 41.5469V42.6608H61.4418V41.5469Z" fill="#0C3DBC"/>
<path d="M63.4689 47.6211C64.1561 47.6211 64.7132 47.0645 64.7132 46.3779C64.7132 45.6912 64.1561 45.1346 63.4689 45.1346C62.7817 45.1346 62.2246 45.6912 62.2246 46.3779C62.2246 47.0645 62.7817 47.6211 63.4689 47.6211Z" fill="white"/>
</g>
<defs>
<clipPath id="clip0_4617_10032">
<rect width="83" height="59" fill="white"/>
</clipPath>
</defs>
</svg>
