<svg width="13" height="13" viewBox="0 0 13 13" fill="none" xmlns="http://www.w3.org/2000/svg">
<g clip-path="url(#clip0_4622_10281)">
<path d="M12.9979 7.26861C12.9991 7.0013 12.9571 5.99278 12.925 5.70435C12.5553 2.39402 9.86856 -0.00854492 6.5369 -0.00854492C3.06672 -0.00854492 0.255072 2.66539 0.0643252 6.21094C0.0602627 6.28833 0.0318252 6.83738 0.0297939 7.16421L0.0287783 7.346C0.0121094 7.42116 0.00195312 7.49875 0.00195312 7.57878V10.3039C0.00195312 10.8991 0.486 11.3831 1.08116 11.3831H2.17661C2.77177 11.3831 3.256 10.8991 3.256 10.3039V7.57899C3.256 6.98383 2.77155 6.49978 2.1766 6.49978H1.08095C1.00767 6.49979 0.934584 6.50721 0.862797 6.52192C0.868891 6.39011 0.874375 6.2861 0.87581 6.25461C1.04298 3.147 3.50547 0.803955 6.53689 0.803955C9.44767 0.803955 11.7944 2.90305 12.1173 5.79474C12.131 5.91539 12.1484 6.22211 12.1624 6.53005C12.0838 6.51177 12.0028 6.49977 11.9187 6.49977H10.836C10.2409 6.49977 9.75683 6.98382 9.75683 7.57897V10.2915C9.75683 10.7024 9.99042 11.0565 10.3293 11.2385L7.72114 12.2624V12.1962C7.72114 11.972 7.53912 11.79 7.31489 11.79H6.09614C5.87187 11.79 5.68989 11.972 5.68989 12.1962V12.6025C5.68989 12.8267 5.87187 13.0087 6.09614 13.0087H7.31489C7.31834 13.0087 7.32139 13.0077 7.32484 13.0077L8.05304 13.0049L12.2368 11.3624C12.2917 11.3396 12.3382 11.3057 12.3764 11.2651C12.7426 11.0922 12.9983 10.7225 12.9983 10.2915V7.57896C12.9983 7.51274 12.9902 7.44835 12.9786 7.38557C12.9898 7.3482 12.9977 7.3094 12.9979 7.26857L12.9979 7.26861ZM1.08097 7.31228H2.17644C2.32371 7.31228 2.44334 7.43172 2.44334 7.57899V10.3041C2.44334 10.4514 2.32349 10.5708 2.17642 10.5708H1.08098C0.933713 10.5708 0.814288 10.4514 0.814288 10.3041V7.57899C0.814479 7.43172 0.933903 7.31228 1.08097 7.31228ZM10.5692 7.57899C10.5692 7.43172 10.6886 7.31228 10.8359 7.31228H11.9185C12.0658 7.31228 12.1854 7.43172 12.1854 7.57899V10.2915C12.1854 10.4388 12.0656 10.5582 11.9185 10.5582H10.8359C10.6886 10.5582 10.5692 10.4388 10.5692 10.2915V7.57899Z" fill="#2998E5"/>
</g>
<defs>
<clipPath id="clip0_4622_10281">
<rect width="13" height="13" fill="white"/>
</clipPath>
</defs>
</svg>
