<svg width="18" height="19" viewBox="0 0 18 19" fill="none" xmlns="http://www.w3.org/2000/svg">
<path fill-rule="evenodd" clip-rule="evenodd" d="M11.25 1.4375H8.208C6.8295 1.4375 5.7375 1.4375 4.88325 1.55225C4.00425 1.67075 3.2925 1.91975 2.73075 2.48075C2.16975 3.0425 1.92075 3.75425 1.80225 4.63325C1.6875 5.48825 1.6875 6.5795 1.6875 7.958V12.5C1.68752 13.1701 1.9267 13.8181 2.362 14.3275C2.7973 14.8369 3.40014 15.1742 4.062 15.2787C4.16475 15.8518 4.3635 16.3408 4.761 16.739C5.2125 17.1905 5.781 17.384 6.456 17.4755C7.10625 17.5625 7.9335 17.5625 8.95875 17.5625H11.2913C12.3165 17.5625 13.1438 17.5625 13.794 17.4755C14.469 17.384 15.0375 17.1905 15.489 16.739C15.9405 16.2875 16.134 15.719 16.2255 15.044C16.3125 14.3938 16.3125 13.5665 16.3125 12.5413V8.70875C16.3125 7.6835 16.3125 6.85625 16.2255 6.206C16.134 5.531 15.9405 4.9625 15.489 4.511C15.0908 4.1135 14.6018 3.91475 14.0287 3.812C13.9242 3.15014 13.5869 2.5473 13.0775 2.112C12.5681 1.6767 11.9201 1.43752 11.25 1.4375ZM12.8475 3.70325C12.7335 3.37025 12.5181 3.08124 12.2317 2.87669C11.9452 2.67214 11.602 2.56229 11.25 2.5625H8.25C6.81975 2.5625 5.80425 2.564 5.0325 2.6675C4.27875 2.76875 3.84375 2.95925 3.5265 3.2765C3.20925 3.59375 3.01875 4.02875 2.9175 4.78325C2.814 5.55425 2.8125 6.56975 2.8125 8V12.5C2.81229 12.852 2.92214 13.1952 3.12669 13.4817C3.33124 13.7681 3.62025 13.9835 3.95325 14.0975C3.9375 13.64 3.9375 13.1225 3.9375 12.5413V8.70875C3.9375 7.6835 3.9375 6.85625 4.02525 6.206C4.11525 5.531 4.31025 4.9625 4.761 4.511C5.2125 4.0595 5.781 3.866 6.456 3.77525C7.10625 3.6875 7.9335 3.6875 8.95875 3.6875H11.2913C11.8725 3.6875 12.39 3.6875 12.8475 3.70325ZM5.556 5.3075C5.76375 5.09975 6.05475 4.96475 6.606 4.8905C7.1715 4.81475 7.923 4.81325 8.99925 4.81325H11.2492C12.3255 4.81325 13.0763 4.81475 13.6432 4.8905C14.1938 4.96475 14.4847 5.1005 14.6925 5.3075C14.9003 5.51525 15.0352 5.80625 15.1095 6.3575C15.1853 6.923 15.1868 7.6745 15.1868 8.75075V12.5007C15.1868 13.577 15.1853 14.3278 15.1095 14.8948C15.0352 15.4453 14.8995 15.7362 14.6925 15.944C14.4847 16.1517 14.1938 16.2868 13.6425 16.361C13.0763 16.4368 12.3255 16.4382 11.2492 16.4382H8.99925C7.923 16.4382 7.1715 16.4368 6.60525 16.361C6.05475 16.2868 5.76375 16.151 5.556 15.944C5.34825 15.7362 5.21325 15.4452 5.139 14.894C5.06325 14.3277 5.06175 13.577 5.06175 12.5007V8.75075C5.06175 7.6745 5.06325 6.923 5.139 6.35675C5.21325 5.80625 5.349 5.51525 5.556 5.3075Z" fill="#74859C"/>
</svg>
