<svg width="32" height="33" viewBox="0 0 32 33" fill="none" xmlns="http://www.w3.org/2000/svg">
<path d="M17 18.684V14.316C17.6672 14.0801 18.2296 13.6159 18.5876 13.0055C18.9457 12.3951 19.0765 11.6777 18.9568 10.9802C18.8371 10.2827 18.4747 9.65001 17.9337 9.19387C17.3926 8.73773 16.7077 8.48755 16 8.48755C15.2923 8.48755 14.6074 8.73773 14.0663 9.19387C13.5253 9.65001 13.1629 10.2827 13.0432 10.9802C12.9235 11.6777 13.0543 12.3951 13.4124 13.0055C13.7705 13.6159 14.3328 14.0801 15 14.316V18.685C14.3328 18.9209 13.7705 19.385 13.4124 19.9955C13.0543 20.6059 12.9235 21.3232 13.0432 22.0207C13.1629 22.7182 13.5253 23.3509 14.0663 23.8071C14.6074 24.2632 15.2923 24.5134 16 24.5134C16.7077 24.5134 17.3926 24.2632 17.9337 23.8071C18.4747 23.3509 18.8371 22.7182 18.9568 22.0207C19.0765 21.3232 18.9457 20.6059 18.5876 19.9955C18.2296 19.385 17.6672 18.9199 17 18.684ZM16 10.5C16.1978 10.5 16.3911 10.5586 16.5556 10.6685C16.72 10.7784 16.8482 10.9346 16.9239 11.1173C16.9996 11.3 17.0194 11.5011 16.9808 11.6951C16.9422 11.889 16.847 12.0672 16.7071 12.2071C16.5673 12.3469 16.3891 12.4422 16.1951 12.4808C16.0011 12.5193 15.8 12.4995 15.6173 12.4239C15.4346 12.3482 15.2784 12.22 15.1685 12.0555C15.0587 11.8911 15 11.6978 15 11.5C15 11.2348 15.1054 10.9804 15.2929 10.7929C15.4804 10.6053 15.7348 10.5 16 10.5ZM16 22.5C15.8022 22.5 15.6089 22.4413 15.4444 22.3314C15.28 22.2216 15.1518 22.0654 15.0761 21.8827C15.0004 21.6999 14.9806 21.4989 15.0192 21.3049C15.0578 21.1109 15.153 20.9327 15.2929 20.7929C15.4328 20.653 15.6109 20.5578 15.8049 20.5192C15.9989 20.4806 16.2 20.5004 16.3827 20.5761C16.5654 20.6518 16.7216 20.78 16.8315 20.9444C16.9414 21.1089 17 21.3022 17 21.5C17 21.7652 16.8947 22.0195 16.7071 22.2071C16.5196 22.3946 16.2652 22.5 16 22.5Z" fill="#1876F2"/>
<path d="M30.4136 17.914C30.7885 17.5389 30.9992 17.0303 30.9992 16.5C30.9992 15.9696 30.7885 15.461 30.4136 15.086L24.6266 9.29896L27.5266 6.43696C27.9543 6.54345 28.4053 6.50578 28.8094 6.3298C29.2136 6.15383 29.5484 5.84938 29.7618 5.46371C29.9753 5.07803 30.0555 4.63269 29.99 4.19677C29.9245 3.76086 29.717 3.35875 29.3996 3.05284C29.0822 2.74693 28.6727 2.55431 28.2347 2.50488C27.7967 2.45545 27.3546 2.55197 26.977 2.77946C26.5995 3.00695 26.3075 3.35269 26.1465 3.76305C25.9855 4.1734 25.9645 4.62542 26.0866 5.04896L23.2126 7.88496L17.4136 2.08496C17.0385 1.71002 16.5299 1.49939 15.9996 1.49939C15.4693 1.49939 14.9607 1.71002 14.5856 2.08496L8.7986 7.87396L5.9366 4.97196C6.04253 4.54411 6.0043 4.09326 5.82785 3.68935C5.6514 3.28545 5.34658 2.95106 4.96069 2.73807C4.5748 2.52508 4.12941 2.44539 3.6936 2.51137C3.2578 2.57734 2.85595 2.7853 2.5504 3.10297C2.24484 3.42064 2.05267 3.83027 2.00368 4.2683C1.95469 4.70634 2.05163 5.1483 2.27946 5.52562C2.50729 5.90295 2.85327 6.19453 3.26373 6.35515C3.67419 6.51577 4.12619 6.53644 4.5496 6.41396L7.3846 9.28696L1.5846 15.086C1.20965 15.461 0.999023 15.9696 0.999023 16.5C0.999023 17.0303 1.20965 17.5389 1.5846 17.914L7.3846 23.713L4.5496 26.586C4.12708 26.4643 3.67622 26.4853 3.26691 26.6459C2.85759 26.8065 2.51267 27.0976 2.28562 27.4742C2.05856 27.8507 1.96205 28.2916 2.01105 28.7285C2.06004 29.1655 2.2518 29.5741 2.55661 29.891C2.86142 30.2079 3.26224 30.4154 3.69696 30.4813C4.13168 30.5473 4.57601 30.468 4.96108 30.2557C5.34615 30.0435 5.65045 29.7101 5.82682 29.3074C6.00319 28.9046 6.04178 28.4549 5.9366 28.028L8.7986 25.128L14.5856 30.914C14.9607 31.2889 15.4693 31.4995 15.9996 31.4995C16.5299 31.4995 17.0385 31.2889 17.4136 30.914L23.2136 25.115L26.0856 27.951C25.9639 28.3735 25.985 28.8243 26.1456 29.2337C26.3061 29.643 26.5973 29.9879 26.9738 30.2149C27.3503 30.442 27.7912 30.5385 28.2282 30.4895C28.6651 30.4405 29.0737 30.2488 29.3906 29.9439C29.7075 29.6391 29.915 29.2383 29.9809 28.8036C30.0469 28.3689 29.9676 27.9246 29.7553 27.5395C29.5431 27.1544 29.2098 26.8501 28.807 26.6737C28.4042 26.4974 27.9545 26.4588 27.5276 26.564L24.6276 23.701L30.4136 17.914ZM15.9996 29.5L2.9996 16.5L15.9996 3.49996L28.9996 16.5L15.9996 29.5Z" fill="#1876F2"/>
</svg>
