<svg width="9" height="9" viewBox="0 0 9 9" fill="none" xmlns="http://www.w3.org/2000/svg">
<path d="M1.42932 2.80954H8.09598M1.42932 5.66668H8.09598M4.76265 8.04764C6.87598 8.04764 8.57217 6.36859 8.57217 4.25526C8.57217 2.14192 6.87598 0.428589 4.76265 0.428589C2.64932 0.428589 0.953125 2.14192 0.953125 4.25526C0.953125 6.36859 2.64932 8.04764 4.76265 8.04764Z" stroke="#949494" stroke-width="0.5" stroke-linecap="round" stroke-linejoin="round"/>
<path fill-rule="evenodd" clip-rule="evenodd" d="M4.76218 8.04764C5.81885 8.04764 6.66695 6.36859 6.66695 4.25526C6.66695 2.14192 5.81885 0.428589 4.76218 0.428589C3.70552 0.428589 2.85742 2.14192 2.85742 4.25526C2.85742 6.36859 3.70552 8.04764 4.76218 8.04764Z" stroke="#949494" stroke-width="0.5" stroke-linecap="round" stroke-linejoin="round"/>
</svg>
