<svg width="20" height="20" viewBox="0 0 20 20" fill="none" xmlns="http://www.w3.org/2000/svg">
<path d="M7.49935 5C7.49935 5.66304 7.76275 6.29893 8.23159 6.76777C8.70043 7.23661 9.33631 7.5 9.99936 7.5C10.6624 7.5 11.2983 7.23661 11.7671 6.76777C12.236 6.29893 12.4994 5.66304 12.4994 5C12.4994 4.33696 12.236 3.70107 11.7671 3.23223C11.2983 2.76339 10.6624 2.5 9.99936 2.5C9.33631 2.5 8.70043 2.76339 8.23159 3.23223C7.76275 3.70107 7.49935 4.33696 7.49935 5ZM3.69769 11.585C3.40708 11.7458 3.15143 11.9629 2.94567 12.2237C2.73992 12.4844 2.58818 12.7835 2.49933 13.1036C2.41047 13.4236 2.38628 13.7581 2.42816 14.0876C2.47004 14.4171 2.57716 14.735 2.74326 15.0226C2.90936 15.3102 3.13111 15.5619 3.39555 15.7628C3.65999 15.9638 3.96183 16.1101 4.28344 16.1931C4.60504 16.2761 4.93996 16.2942 5.26863 16.2463C5.5973 16.1984 5.91314 16.0855 6.19769 15.9142C6.7672 15.5803 7.18154 15.0347 7.35028 14.3965C7.51902 13.7582 7.42847 13.0791 7.09837 12.5074C6.76828 11.9357 6.22546 11.5178 5.58835 11.3448C4.95124 11.1718 4.27158 11.2579 3.69769 11.5842V11.585ZM16.301 11.585C16.5911 11.746 16.8463 11.9631 17.0516 12.2236C17.2569 12.4842 17.4083 12.7831 17.497 13.1028C17.5856 13.4225 17.6096 13.7567 17.5678 14.0858C17.5259 14.4149 17.4189 14.7324 17.2531 15.0197C17.0872 15.3071 16.8658 15.5585 16.6018 15.7594C16.3377 15.9602 16.0363 16.1065 15.7152 16.1897C15.394 16.2729 15.0595 16.2913 14.7311 16.2438C14.4028 16.1964 14.0872 16.084 13.8027 15.9133C13.2406 15.5761 12.8336 15.0315 12.6692 14.397C12.5049 13.7624 12.5964 13.0887 12.9241 12.521C13.2518 11.9533 13.7894 11.5371 14.421 11.362C15.0527 11.1869 15.7278 11.267 16.301 11.585Z" stroke="#596473" stroke-width="2"/>
<path fill-rule="evenodd" clip-rule="evenodd" d="M7.55824 5.53586C7.48694 5.21101 7.48116 4.8752 7.54126 4.54809C7.60136 4.22098 7.72612 3.90915 7.90824 3.63086C6.05011 4.17051 4.47243 5.40742 3.50493 7.08308C2.53743 8.75874 2.25497 10.7435 2.71658 12.6225C2.86661 12.3258 3.07435 12.0619 3.32762 11.8464C3.58089 11.6309 3.87461 11.4681 4.19158 11.3675C4.08091 10.1667 4.34524 8.96106 4.94817 7.91668C5.5511 6.87229 6.46298 6.04051 7.55824 5.53586ZM12.4416 5.53586C13.5367 6.04071 14.4484 6.87253 15.0513 7.91687C15.6542 8.9612 15.9187 10.1667 15.8082 11.3675C16.1253 11.4682 16.4191 11.6311 16.6723 11.8468C16.9256 12.0624 17.1333 12.3264 17.2832 12.6234C17.7444 10.7443 17.4618 8.75979 16.4943 7.08423C15.5269 5.40868 13.9495 4.17171 12.0916 3.63169C12.2735 3.90991 12.3982 4.2216 12.4583 4.54855C12.5183 4.87549 12.5127 5.21113 12.4416 5.53586ZM15.1916 16.2459C14.8595 16.2643 14.5271 16.2163 14.2138 16.1049C13.9004 15.9934 13.6124 15.8207 13.3666 15.5967C12.3819 16.2926 11.2057 16.6663 9.99991 16.6663C8.79412 16.6663 7.61795 16.2926 6.63324 15.5967C6.38749 15.8209 6.09952 15.9938 5.78617 16.1054C5.47282 16.217 5.14037 16.265 4.80824 16.2467C6.20473 17.5862 8.06488 18.3341 9.99991 18.3341C11.9349 18.3341 13.7951 17.5853 15.1916 16.2459Z" fill="#596473"/>
</svg>
