<svg width="16" height="17" viewBox="0 0 16 17" fill="none" xmlns="http://www.w3.org/2000/svg">
<path d="M10.8069 6.74997C11.3804 6.75691 11.9421 6.58616 12.4147 6.26116C12.8875 5.93604 13.248 5.47252 13.4467 4.93427L12.9776 4.76109L13.4467 4.93427C13.6454 4.39601 13.6726 3.80943 13.5245 3.2551C13.3765 2.70076 13.0604 2.20588 12.6197 1.83841C12.1791 1.47095 11.6354 1.24894 11.0635 1.20289C10.4916 1.15683 9.91946 1.28899 9.42567 1.5812C8.93189 1.87341 8.54069 2.31134 8.30582 2.83484C8.07136 3.35743 8.00417 3.93969 8.1134 4.50191L8.1189 4.53187L4.83395 7.81682L4.6875 7.96327V8.17038V9.625V10.125H5.1875H6.64213H6.84923L6.99568 9.97855L10.2807 6.69352L10.3105 6.69899C10.4741 6.73119 10.6402 6.74826 10.8069 6.74997ZM10.8069 6.74997C10.8067 6.74997 10.8065 6.74997 10.8063 6.74996L10.8125 6.25L10.8075 6.74998C10.8073 6.74997 10.8071 6.74997 10.8069 6.74997ZM7.80793 4.66631L7.97683 4.4974L7.95157 4.25988C7.94238 4.17341 7.93768 4.08652 7.9375 3.99957C7.93758 3.4311 8.10619 2.87541 8.42202 2.40274L8.00629 2.12495L8.42203 2.40274C8.73793 1.92995 9.18695 1.56145 9.71229 1.34385C10.2376 1.12625 10.8157 1.06931 11.3734 1.18024C11.9311 1.29118 12.4434 1.56499 12.8454 1.96707C13.2475 2.36915 13.5213 2.88142 13.6323 3.43912C13.7432 3.99681 13.6863 4.57488 13.4687 5.10022C13.2511 5.62555 12.8826 6.07457 12.4098 6.39048C11.9371 6.7063 11.3814 6.87491 10.813 6.875C10.726 6.87482 10.6391 6.87012 10.5526 6.86093L10.3151 6.83568L10.1462 7.00457L6.90077 10.25H4.5625V7.91173L7.80793 4.66631ZM15.25 11.875V11.5007C15.3305 11.6083 15.3749 11.7396 15.375 11.8755V15.2495C15.3749 15.3854 15.3305 15.5167 15.25 15.6243V15.25V11.875ZM14.7495 11.25C14.8854 11.2501 15.0167 11.2945 15.1243 11.375H14.75H10.1875V11.25H14.7495ZM14.7495 15.875H1.2505C1.11458 15.8749 0.983263 15.8305 0.875744 15.75H1.25H14.75H15.1243C15.0167 15.8305 14.8854 15.8749 14.7495 15.875ZM1.875 11.25V11.375H1.25H0.875744C0.983263 11.2945 1.11458 11.2501 1.2505 11.25H1.875ZM0.75 15.25V15.6243C0.669498 15.5168 0.62518 15.3855 0.625 15.2497V11.8753C0.62518 11.7395 0.669499 11.6082 0.75 11.5007V11.875V15.25Z" fill="#C2CFE0" stroke="#CCCCCC"/>
</svg>
