<svg width="16" height="17" viewBox="0 0 16 17" fill="none" xmlns="http://www.w3.org/2000/svg">
<path d="M7.31258 6.01004C7.17292 6.10606 7.06096 6.2371 6.98792 6.39004C6.92595 6.5038 6.82225 6.58908 6.69866 6.6279C6.57507 6.66672 6.44124 6.65605 6.32535 6.59816C6.20947 6.54026 6.12058 6.43964 6.07741 6.3175C6.03424 6.19536 6.04016 6.06124 6.09392 5.94337C6.22725 5.67537 6.43592 5.39271 6.75858 5.17804C7.08392 4.96004 7.49525 4.83337 7.99925 4.83337C8.43792 4.83337 8.91192 4.96337 9.28858 5.24604C9.49858 5.39955 9.66888 5.60099 9.7853 5.8336C9.90172 6.06622 9.9609 6.32327 9.95792 6.58337C9.95792 7.27204 9.61592 7.73004 9.27325 8.06004C9.14658 8.18204 9.00725 8.29871 8.88725 8.39871L8.78925 8.48071C8.68642 8.56481 8.58953 8.65592 8.49925 8.75337V9.66671C8.49925 9.79932 8.44657 9.92649 8.3528 10.0203C8.25904 10.114 8.13186 10.1667 7.99925 10.1667C7.86664 10.1667 7.73947 10.114 7.6457 10.0203C7.55193 9.92649 7.49925 9.79932 7.49925 9.66671V8.68471C7.49925 8.52671 7.54392 8.34871 7.66392 8.19404C7.81058 8.00737 7.98792 7.84937 8.14258 7.71804L8.26458 7.61604L8.26525 7.61537C8.37992 7.52004 8.48125 7.43537 8.57858 7.34071C8.82392 7.10404 8.95792 6.89004 8.95792 6.58337C8.96086 6.47854 8.93781 6.3746 8.89081 6.28084C8.84382 6.18708 8.77434 6.10642 8.68858 6.04604C8.50992 5.91204 8.25525 5.83337 7.99925 5.83337C7.66992 5.83337 7.45658 5.91404 7.31258 6.01004ZM8.66592 11.8334C8.66592 12.0102 8.59568 12.1798 8.47066 12.3048C8.34563 12.4298 8.17606 12.5 7.99925 12.5C7.82244 12.5 7.65287 12.4298 7.52785 12.3048C7.40282 12.1798 7.33258 12.0102 7.33258 11.8334C7.33258 11.6566 7.40282 11.487 7.52785 11.362C7.65287 11.2369 7.82244 11.1667 7.99925 11.1667C8.17606 11.1667 8.34563 11.2369 8.47066 11.362C8.59568 11.487 8.66592 11.6566 8.66592 11.8334Z" fill="#939393"/>
<path d="M8.0013 1.16675C12.0513 1.16675 15.3346 4.45008 15.3346 8.50008C15.3346 12.5501 12.0513 15.8334 8.0013 15.8334C3.9513 15.8334 0.667969 12.5501 0.667969 8.50008C0.667969 4.45008 3.9513 1.16675 8.0013 1.16675ZM1.66797 8.50008C1.66797 10.1798 2.33523 11.7907 3.52296 12.9784C4.71069 14.1662 6.3216 14.8334 8.0013 14.8334C9.68101 14.8334 11.2919 14.1662 12.4796 12.9784C13.6674 11.7907 14.3346 10.1798 14.3346 8.50008C14.3346 6.82038 13.6674 5.20947 12.4796 4.02174C11.2919 2.83401 9.68101 2.16675 8.0013 2.16675C6.3216 2.16675 4.71069 2.83401 3.52296 4.02174C2.33523 5.20947 1.66797 6.82038 1.66797 8.50008Z" fill="#939393"/>
</svg>
