<svg width="20" height="20" viewBox="0 0 20 20" fill="none" xmlns="http://www.w3.org/2000/svg">
<g clip-path="url(#clip0_5204_10177)">
<path d="M17.9555 4.99134L15.0092 2.04507C14.6837 1.71963 14.1561 1.71963 13.8307 2.04507L9.70588 6.16986C9.38044 6.49529 9.38044 7.02293 9.70588 7.34837L12.6522 10.2946C12.9776 10.6201 13.5052 10.6201 13.8307 10.2946L17.9555 6.16986C18.2809 5.84442 18.2809 5.31678 17.9555 4.99134Z" stroke="#596473" stroke-width="2" stroke-linejoin="round"/>
<path d="M10.2953 12.6517L7.34902 9.70547C7.02358 9.38003 6.49595 9.38003 6.17051 9.70547L2.04572 13.8303C1.72028 14.1557 1.72028 14.6833 2.04572 15.0088L4.992 17.955C5.31744 18.2805 5.84507 18.2805 6.17051 17.955L10.2953 13.8303C10.6207 13.5048 10.6207 12.9772 10.2953 12.6517Z" stroke="#596473" stroke-width="2" stroke-linejoin="round"/>
<path d="M12.9472 7.05371L7.05469 12.9462" stroke="#596473" stroke-width="2" stroke-linecap="round" stroke-linejoin="round"/>
</g>
<defs>
<clipPath id="clip0_5204_10177">
<rect width="20" height="20" fill="white"/>
</clipPath>
</defs>
</svg>
