<svg width="64" height="64" viewBox="0 0 64 64" fill="none" xmlns="http://www.w3.org/2000/svg">
<g clip-path="url(#clip0_4666_1212)">
<path opacity="0.1" d="M32 63.9996C49.6732 63.9996 64.0001 49.6728 64.0001 31.9998C64.0001 14.3268 49.6732 0 32 0C14.3269 0 0 14.3268 0 31.9998C0 49.6728 14.3269 63.9996 32 63.9996Z" fill="#A4C0F6"/>
<path d="M18.1555 22.4013C18.2712 22.2716 18.4113 22.166 18.5678 22.0904C18.7243 22.0148 18.8942 21.9708 19.0677 21.9609C19.2412 21.951 19.415 21.9754 19.5791 22.0326C19.7433 22.0899 19.8945 22.1789 20.0242 22.2946L24.2481 26.0619L22.4861 28.0375L18.2622 24.2701C18.1324 24.1544 18.0268 24.0143 17.9512 23.8578C17.8757 23.7013 17.8317 23.5314 17.8218 23.3578C17.8118 23.1843 17.8362 23.0105 17.8935 22.8464C17.9507 22.6823 18.0398 22.5311 18.1555 22.4013Z" fill="white"/>
<path d="M22.4959 28.2217L18.1748 24.3675C18.0322 24.2404 17.9162 24.0864 17.8331 23.9144C17.7501 23.7425 17.7017 23.5558 17.6908 23.3651C17.6799 23.1745 17.7067 22.9835 17.7696 22.8032C17.8325 22.6229 17.9303 22.4567 18.0574 22.3142C18.1845 22.1717 18.3385 22.0556 18.5105 21.9725C18.6825 21.8895 18.8691 21.8411 19.0598 21.8303C19.2504 21.8194 19.4414 21.8461 19.6217 21.909C19.802 21.9719 19.9682 22.0697 20.1107 22.1968L24.4324 26.0512L22.4959 28.2217ZM19.1439 22.0892C19.1208 22.0892 19.0976 22.0899 19.0743 22.0912C18.8388 22.1047 18.6125 22.1877 18.4242 22.3298C18.2359 22.4719 18.0939 22.6667 18.0162 22.8895C17.9386 23.1122 17.9287 23.3531 17.9879 23.5814C18.0471 23.8098 18.1727 24.0155 18.3488 24.1725L22.4752 27.8529L24.0632 26.0725L19.9368 22.3922C19.7191 22.1968 19.4368 22.0889 19.1443 22.0892H19.1439Z" fill="#292A2E"/>
<path d="M41.5137 28.0372L39.7517 26.0617L43.9756 22.2944C44.2376 22.0608 44.5817 21.9407 44.9321 21.9608C45.2826 21.9808 45.6107 22.1392 45.8444 22.4012C46.078 22.6631 46.198 23.0072 46.178 23.3576C46.158 23.7081 45.9996 24.0362 45.7376 24.2699L41.5137 28.0372Z" fill="white"/>
<path d="M41.5033 28.2217L39.5674 26.0512L43.8889 22.1968C44.1768 21.9401 44.5548 21.8082 44.9399 21.8303C45.325 21.8523 45.6855 22.0263 45.9422 22.3142C46.199 22.602 46.3308 22.9801 46.3088 23.3651C46.2868 23.7502 46.1127 24.1108 45.8249 24.3675L41.5033 28.2217ZM39.9365 26.0723L41.5245 27.8527L45.6509 24.1725C45.7678 24.0683 45.863 23.942 45.9311 23.8009C45.9992 23.6599 46.0389 23.5068 46.0478 23.3504C46.0568 23.194 46.0348 23.0374 45.9832 22.8895C45.9316 22.7416 45.8514 22.6053 45.7471 22.4884C45.6428 22.3715 45.5166 22.2762 45.3755 22.2081C45.2344 22.14 45.0813 22.1004 44.9249 22.0915C44.7685 22.0825 44.6119 22.1045 44.464 22.1561C44.3161 22.2077 44.1798 22.2879 44.0629 22.3922L39.9365 26.0723Z" fill="#292A2E"/>
<path d="M43.2732 30.4878C44.2154 34.6602 45.5053 37.3445 44.863 38.8862C44.5253 39.6965 43.8323 40.376 42.6852 40.376C40.897 40.376 40.897 38.2671 39.1087 38.2671C37.3204 38.2671 37.3207 40.376 35.5326 40.376C33.7445 40.376 33.7447 38.2671 31.9568 38.2671C30.1689 38.2671 30.1688 40.376 28.3808 40.376C26.5928 40.376 26.5929 38.2671 24.805 38.2671C23.0171 38.2671 23.0173 40.376 21.2296 40.376C20.1681 40.376 19.5681 39.7509 19.1876 39.0285C18.2731 37.2929 20.4044 33.4739 21.2296 30.1061C22.1413 26.3847 22.0645 21.7494 22.1868 18.9538C22.4228 13.5625 26.5611 9.18274 31.958 9.18274C37.3548 9.18274 41.336 13.5717 41.7291 18.9538C41.941 21.8553 42.4107 26.6683 43.2732 30.4878Z" fill="white"/>
<path d="M42.6853 40.5078C41.7301 40.5078 41.2556 39.9481 40.7965 39.4064C40.357 38.8881 39.9419 38.3986 39.1088 38.3986C38.2758 38.3986 37.8612 38.8881 37.4213 39.4064C36.9623 39.9477 36.4878 40.5078 35.5327 40.5078C34.5777 40.5078 34.1032 39.9481 33.6444 39.4064C33.2049 38.8881 32.7897 38.3986 31.9569 38.3986C31.1242 38.3986 30.7093 38.8881 30.2695 39.4064C29.8105 39.9477 29.3361 40.5078 28.3809 40.5078C27.4258 40.5078 26.9511 39.9481 26.493 39.407C26.0535 38.8886 25.6385 38.3992 24.8056 38.3992C23.9727 38.3992 23.558 38.8886 23.1184 39.407C22.6596 39.9482 22.1851 40.5084 21.2302 40.5084C20.2804 40.5084 19.5743 40.0446 19.0715 39.0904C18.434 37.8804 19.1997 35.7409 20.0106 33.4761C20.4132 32.3512 20.8293 31.1879 21.1022 30.0755C21.8314 27.0993 21.9237 23.6022 21.9978 20.792C22.0152 20.1274 22.0318 19.4995 22.0563 18.9488C22.1732 16.2801 23.2343 13.7964 25.0444 11.9549C25.9441 11.033 27.0197 10.301 28.2074 9.8023C29.3952 9.30362 30.6709 9.04841 31.9591 9.05179C33.2389 9.04876 34.5062 9.30476 35.6845 9.80437C36.8628 10.304 37.9278 11.0369 38.8155 11.9589C40.5838 13.7796 41.6656 16.2608 41.8617 18.945C42.0507 21.5332 42.5022 26.4705 43.4029 30.4596C43.7084 31.8125 44.0503 33.0076 44.352 34.062C44.9818 36.2639 45.437 37.8547 44.9855 38.9377C44.7403 39.524 44.1166 40.5078 42.6853 40.5078ZM39.1088 38.1353C40.064 38.1353 40.5386 38.695 40.9976 39.2367C41.4372 39.7551 41.8523 40.2445 42.6853 40.2445C43.9636 40.2445 44.5223 39.362 44.7415 38.8357C45.1573 37.8379 44.7122 36.2843 44.0975 34.1341C43.7953 33.0762 43.4518 31.8774 43.1448 30.5173C42.2403 26.5113 41.7873 21.5592 41.5978 18.9638C41.196 13.463 37.0518 9.31486 31.958 9.31486C26.7895 9.31486 22.5553 13.5514 22.3182 18.9599C22.2942 19.5082 22.2776 20.135 22.2597 20.7985C22.1892 23.4722 22.0926 27.134 21.3567 30.1378C21.081 31.2634 20.6622 32.4333 20.2573 33.5646C19.4666 35.7733 18.7198 37.8599 19.3033 38.9674C19.7562 39.8267 20.3859 40.2443 21.2288 40.2443C22.0615 40.2443 22.4764 39.7548 22.916 39.2364C23.3748 38.6951 23.8493 38.135 24.8042 38.135C25.7591 38.135 26.2338 38.6947 26.6926 39.2364C27.1321 39.7548 27.5471 40.2443 28.38 40.2443C29.2129 40.2443 29.6281 39.7547 30.0675 39.2364C30.5265 38.6951 31.0009 38.135 31.956 38.135C32.911 38.135 33.3856 38.6948 33.8444 39.2364C34.2839 39.7548 34.6988 40.2443 35.5318 40.2443C36.3648 40.2443 36.7799 39.7547 37.2194 39.2364C37.6792 38.6955 38.1537 38.1353 39.1088 38.1353Z" fill="#292A2E"/>
<path d="M28.2862 19.5841C28.8844 19.5841 29.3693 19.0992 29.3693 18.5011C29.3693 17.9029 28.8844 17.418 28.2862 17.418C27.688 17.418 27.2031 17.9029 27.2031 18.5011C27.2031 19.0992 27.688 19.5841 28.2862 19.5841Z" fill="#292A2E"/>
<path d="M35.713 19.5841C36.3112 19.5841 36.7961 19.0992 36.7961 18.5011C36.7961 17.9029 36.3112 17.418 35.713 17.418C35.1148 17.418 34.6299 17.9029 34.6299 18.5011C34.6299 19.0992 35.1148 19.5841 35.713 19.5841Z" fill="#292A2E"/>
<path d="M33.9404 21.4243C34.0029 21.4242 34.0647 21.4379 34.1212 21.4647C34.1777 21.4914 34.2276 21.5304 34.2671 21.5788C34.3067 21.6272 34.3349 21.6838 34.3499 21.7445C34.3648 21.8052 34.366 21.8685 34.3534 21.9297C34.1212 23.0156 33.1562 23.6982 32.0008 23.6982C30.8455 23.6982 29.8805 23.0159 29.6483 21.9297C29.6357 21.8685 29.6369 21.8052 29.6518 21.7445C29.6667 21.6838 29.695 21.6271 29.7346 21.5787C29.7742 21.5303 29.824 21.4913 29.8805 21.4646C29.9371 21.4379 29.9988 21.4241 30.0614 21.4243H33.9404Z" fill="white"/>
<path d="M32.0003 23.83C30.7556 23.83 29.7585 23.0774 29.5189 21.9572C29.5018 21.8775 29.5029 21.7949 29.522 21.7156C29.5411 21.6363 29.5777 21.5624 29.6292 21.4991C29.6811 21.4346 29.7469 21.3826 29.8216 21.3469C29.8963 21.3113 29.978 21.2928 30.0608 21.293H33.9402C34.0229 21.2928 34.1047 21.3113 34.1794 21.347C34.2541 21.3827 34.3198 21.4346 34.3718 21.4991C34.4232 21.5624 34.4599 21.6364 34.479 21.7156C34.4981 21.7949 34.4991 21.8775 34.4821 21.9572C34.2421 23.0774 33.2447 23.83 32.0003 23.83ZM30.0606 21.5561C30.0171 21.5561 29.9742 21.5658 29.935 21.5846C29.8957 21.6033 29.8612 21.6307 29.8339 21.6645C29.8072 21.6973 29.7881 21.7357 29.7782 21.7768C29.7683 21.8179 29.7677 21.8608 29.7765 21.9022C29.9893 22.8976 30.8829 23.5665 32.0001 23.5665C33.1173 23.5665 34.0109 22.8976 34.2238 21.9022C34.2326 21.8608 34.232 21.8179 34.222 21.7768C34.212 21.7357 34.193 21.6973 34.1662 21.6645C34.1389 21.6306 34.1044 21.6033 34.0652 21.5846C34.026 21.5658 33.983 21.5561 33.9396 21.5561H30.0606Z" fill="#292A2E"/>
<path d="M57.4586 51.3894C51.6123 59.0544 42.3838 64 32.0003 64C21.6168 64 12.3883 59.0544 6.54199 51.3894C13.2158 48.8785 22.1636 47.3434 32.0003 47.3434C41.837 47.3434 50.7843 48.8785 57.4586 51.3894Z" fill="#A4C0F6"/>
<path d="M60.1446 16.7595L43.7217 16.6893C43.7217 13.9465 45.2666 13.4065 46.909 12.9611C48.5513 12.5156 49.2902 9.50089 52.1441 9.32935C53.8295 9.22798 54.7134 9.66172 55.4454 10.2202C55.4464 10.2212 55.4464 10.2222 55.4474 10.2222C57.2813 12.1954 58.8595 14.3918 60.1446 16.7595Z" fill="white"/>
<path d="M13.2979 37.1394L0.420137 37.195C0.200171 35.8504 0.0666867 34.4931 0.0205078 33.1314C2.8413 32.7318 2.55279 30.49 5.92137 30.6937C8.42051 30.8438 9.06967 33.4843 10.5074 33.8742C11.945 34.264 13.2979 34.7382 13.2979 37.1394Z" fill="white"/>
</g>
<defs>
<clipPath id="clip0_4666_1212">
<rect width="64" height="64" fill="white"/>
</clipPath>
</defs>
</svg>
