<svg width="32" height="33" viewBox="0 0 32 33" fill="none" xmlns="http://www.w3.org/2000/svg">
<path d="M20 20.5H30V22.5H20V20.5ZM20 24.5H30V26.5H20V24.5ZM20 28.5H30V30.5H20V28.5ZM16 20.5C15.4714 20.512 14.9459 20.4168 14.4552 20.22C13.9644 20.0233 13.5186 19.7291 13.1448 19.3552C12.7709 18.9814 12.4767 18.5356 12.28 18.0449C12.0832 17.5541 11.988 17.0286 12 16.5C11.988 15.9714 12.0832 15.4459 12.28 14.9552C12.4767 14.4644 12.7709 14.0186 13.1448 13.6448C13.5186 13.2709 13.9644 12.9767 14.4552 12.78C14.9459 12.5832 15.4714 12.488 16 12.5C16.5286 12.488 17.0541 12.5832 17.5449 12.78C18.0356 12.9767 18.4814 13.2709 18.8552 13.6448C19.2291 14.0186 19.5233 14.4644 19.72 14.9552C19.9168 15.4459 20.012 15.9714 20 16.5H22C22 15.3133 21.6481 14.1533 20.9888 13.1666C20.3295 12.1799 19.3925 11.4109 18.2961 10.9567C17.1997 10.5026 15.9933 10.3838 14.8295 10.6153C13.6656 10.8468 12.5965 11.4182 11.7574 12.2574C10.9182 13.0965 10.3468 14.1656 10.1153 15.3295C9.88378 16.4933 10.0026 17.6997 10.4567 18.7961C10.9109 19.8925 11.6799 20.8295 12.6666 21.4888C13.6533 22.1481 14.8133 22.5 16 22.5V20.5Z" fill="#1876F2"/>
<path d="M29.3052 11.544L26.9452 7.456C26.7143 7.055 26.3514 6.74656 25.9185 6.58334C25.4855 6.42011 25.0093 6.41221 24.5712 6.561L22.1372 7.385C21.7177 7.10259 21.2793 6.84933 20.8252 6.627L20.3212 4.107C20.2303 3.6538 19.9853 3.24604 19.6278 2.95307C19.2703 2.6601 18.8224 2.5 18.3602 2.5H13.6402C13.1778 2.50005 12.7297 2.66029 12.3722 2.95346C12.0147 3.24663 11.7698 3.65461 11.6792 4.108L11.1752 6.627C10.7159 6.84689 10.2725 7.0985 9.84816 7.38L7.42816 6.561C6.99029 6.41274 6.51456 6.4209 6.08203 6.5841C5.6495 6.7473 5.28695 7.05544 5.05616 7.456L2.69616 11.544C2.46498 11.9443 2.37959 12.4123 2.45452 12.8685C2.52945 13.3246 2.76007 13.7407 3.10716 14.046L5.03816 15.743C5.02116 15.995 5.00016 16.245 5.00016 16.5C5.00016 16.758 5.01016 17.013 5.02816 17.266L3.10816 18.954C2.76075 19.259 2.52974 19.675 2.45444 20.1312C2.37914 20.5873 2.46421 21.0555 2.69516 21.456L5.05516 25.544C5.28603 25.945 5.64892 26.2534 6.08188 26.4167C6.51484 26.5799 6.99103 26.5878 7.42916 26.439L9.86316 25.615C10.2825 25.8979 10.7209 26.1515 11.1752 26.374L11.6782 28.892C11.7688 29.3456 12.0139 29.7537 12.3716 30.0469C12.7293 30.34 13.1776 30.5002 13.6402 30.5H16.0002V28.5H13.6402L12.9302 24.95C11.948 24.5851 11.0362 24.0533 10.2352 23.378L6.78816 24.544L4.42816 20.456L7.15316 18.061C6.96673 17.0269 6.96436 15.9679 7.14616 14.933L4.42816 12.543L6.78816 8.456L10.2152 9.616C11.022 8.93973 11.9408 8.40975 12.9302 8.05L13.6402 4.5H18.3602L19.0702 8.05C20.0523 8.41491 20.9641 8.94673 21.7652 9.622L25.2122 8.456L27.5722 12.544L24.7742 14.996L26.0922 16.5L28.8922 14.046C29.2396 13.741 29.4706 13.325 29.5459 12.8688C29.6212 12.4127 29.5361 11.9445 29.3052 11.544Z" fill="#1876F2"/>
</svg>
