<svg width="20" height="20" viewBox="0 0 20 20" fill="none" xmlns="http://www.w3.org/2000/svg">
<g clip-path="url(#clip0_5204_10202)">
<path fill-rule="evenodd" clip-rule="evenodd" d="M8.74935 3.33329C8.54026 3.33326 8.33463 3.38667 8.15199 3.48845C7.96935 3.59023 7.81576 3.73702 7.7058 3.91485C7.59584 4.09269 7.53316 4.29569 7.52372 4.50456C7.51428 4.71344 7.55838 4.92126 7.65185 5.10829L7.78768 5.37913C7.85568 5.51482 7.8878 5.66566 7.88101 5.81728C7.87421 5.9689 7.82871 6.11626 7.74885 6.24533C7.66899 6.37439 7.55742 6.48087 7.42477 6.55461C7.29211 6.62836 7.14279 6.66692 6.99102 6.66663H4.16602C3.945 6.66663 3.73304 6.75442 3.57676 6.9107C3.42048 7.06698 3.33268 7.27895 3.33268 7.49996V8.49496C4.84935 8.40413 6.24935 9.60413 6.24935 11.25C6.24935 12.8958 4.84935 14.0958 3.33268 14.005V15.8333C3.33268 16.0543 3.42048 16.2663 3.57676 16.4225C3.73304 16.5788 3.945 16.6666 4.16602 16.6666H5.99435C5.90352 15.15 7.10352 13.75 8.74935 13.75C10.3952 13.75 11.5952 15.15 11.5043 16.6666H12.4993C12.7204 16.6666 12.9323 16.5788 13.0886 16.4225C13.2449 16.2663 13.3327 16.0543 13.3327 15.8333V13.0083C13.3327 12.3466 14.0285 11.9166 14.6202 12.2116L14.8902 12.3475C15.0772 12.4408 15.285 12.4849 15.4938 12.4754C15.7026 12.4659 15.9055 12.4032 16.0833 12.2932C16.2611 12.1833 16.4078 12.0297 16.5096 11.8471C16.6113 11.6646 16.6648 11.459 16.6648 11.25C16.6648 11.0409 16.6113 10.8354 16.5096 10.6528C16.4078 10.4702 16.2611 10.3166 16.0833 10.2067C15.9055 10.0967 15.7026 10.034 15.4938 10.0246C15.285 10.0151 15.0772 10.0591 14.8902 10.1525L14.6202 10.2883C14.4845 10.3563 14.3336 10.3884 14.182 10.3816C14.0304 10.3748 13.883 10.3293 13.754 10.2495C13.6249 10.1696 13.5184 10.058 13.4447 9.92538C13.371 9.79272 13.3324 9.6434 13.3327 9.49163V7.49996C13.3327 7.27895 13.2449 7.06698 13.0886 6.9107C12.9323 6.75442 12.7204 6.66663 12.4993 6.66663H10.5077C9.84601 6.66663 9.41602 5.97079 9.71102 5.37913L9.84685 5.10829C9.94031 4.92126 9.98442 4.71344 9.97498 4.50456C9.96553 4.29569 9.90286 4.09269 9.7929 3.91485C9.68294 3.73702 9.52935 3.59023 9.3467 3.48845C9.16406 3.38667 8.95844 3.33326 8.74935 3.33329ZM5.88602 4.99996C5.62268 3.31913 6.91102 1.66663 8.74935 1.66663C10.5868 1.66663 11.876 3.31913 11.6127 4.99996H12.4993C13.1624 4.99996 13.7983 5.26335 14.2671 5.73219C14.736 6.20103 14.9993 6.83692 14.9993 7.49996V8.38663C16.6802 8.12329 18.3327 9.41163 18.3327 11.25C18.3327 13.0875 16.6802 14.3766 14.9993 14.1133V15.8333C14.9993 16.4963 14.736 17.1322 14.2671 17.6011C13.7983 18.0699 13.1624 18.3333 12.4993 18.3333H10.4935C10.347 18.3335 10.2028 18.2972 10.0738 18.2279C9.94477 18.1585 9.83501 18.0582 9.75437 17.9359C9.67372 17.8136 9.62473 17.6732 9.61178 17.5273C9.59883 17.3814 9.62233 17.2345 9.68018 17.1L9.75101 16.9358C9.82216 16.77 9.85104 16.5891 9.83507 16.4094C9.81909 16.2297 9.75875 16.0568 9.65947 15.9061C9.56018 15.7555 9.42506 15.6318 9.26621 15.5463C9.10737 15.4607 8.92977 15.4159 8.74935 15.4159C8.56893 15.4159 8.39133 15.4607 8.23249 15.5463C8.07364 15.6318 7.93852 15.7555 7.83923 15.9061C7.73995 16.0568 7.67961 16.2297 7.66363 16.4094C7.64765 16.5891 7.67653 16.77 7.74768 16.9358L7.81852 17.1008C8.06852 17.6841 7.64018 18.3333 7.00518 18.3333H4.16602C3.50297 18.3333 2.86709 18.0699 2.39825 17.6011C1.92941 17.1322 1.66602 16.4963 1.66602 15.8333V12.9941C1.66602 12.3591 2.31518 11.9308 2.89935 12.1808L3.06352 12.2516C3.22931 12.3228 3.41018 12.3517 3.58989 12.3357C3.7696 12.3197 3.94253 12.2594 4.09318 12.1601C4.24382 12.0608 4.36747 11.9257 4.45302 11.7668C4.53857 11.608 4.58336 11.4304 4.58336 11.25C4.58336 11.0695 4.53857 10.8919 4.45302 10.7331C4.36747 10.5743 4.24382 10.4391 4.09318 10.3398C3.94253 10.2406 3.7696 10.1802 3.58989 10.1642C3.41018 10.1483 3.22931 10.1771 3.06352 10.2483L2.89852 10.3191C2.31518 10.5691 1.66602 10.1408 1.66602 9.50579V7.49996C1.66602 6.83692 1.92941 6.20103 2.39825 5.73219C2.86709 5.26335 3.50297 4.99996 4.16602 4.99996H5.88602Z" fill="#596473"/>
</g>
<defs>
<clipPath id="clip0_5204_10202">
<rect width="20" height="20" fill="white"/>
</clipPath>
</defs>
</svg>
