<svg width="20" height="20" viewBox="0 0 20 20" fill="none" xmlns="http://www.w3.org/2000/svg">
<rect width="20" height="20" rx="10" fill="#5F88F0"/>
<path d="M10.0007 16.6667C8.13954 16.6667 6.56315 16.0209 5.27148 14.7292C3.97982 13.4375 3.33398 11.8612 3.33398 10C3.33398 8.13893 3.97982 6.56254 5.27148 5.27087C6.56315 3.97921 8.13954 3.33337 10.0007 3.33337C10.959 3.33337 11.8757 3.53115 12.7507 3.92671C13.6257 4.32226 14.3757 4.88837 15.0007 5.62504V3.33337H16.6673V9.16671H10.834V7.50004H14.334C13.8895 6.72226 13.282 6.11115 12.5115 5.66671C11.7409 5.22226 10.904 5.00004 10.0007 5.00004C8.61176 5.00004 7.43121 5.48615 6.45898 6.45837C5.48676 7.4306 5.00065 8.61115 5.00065 10C5.00065 11.3889 5.48676 12.5695 6.45898 13.5417C7.43121 14.5139 8.61176 15 10.0007 15C11.0701 15 12.0354 14.6945 12.8965 14.0834C13.7576 13.4723 14.3618 12.6667 14.709 11.6667H16.459C16.0701 13.1389 15.2784 14.3403 14.084 15.2709C12.8895 16.2014 11.5284 16.6667 10.0007 16.6667Z" fill="white"/>
</svg>
