<svg width="20" height="20" viewBox="0 0 20 20" fill="none" xmlns="http://www.w3.org/2000/svg">
<path d="M13.4167 12.1667H12.7583L12.525 11.9417C13.3417 10.9917 13.8333 9.75833 13.8333 8.41667C13.8333 5.425 11.4083 3 8.41667 3C5.425 3 3 5.425 3 8.41667C3 11.4083 5.425 13.8333 8.41667 13.8333C9.75833 13.8333 10.9917 13.3417 11.9417 12.525L12.1667 12.7583V13.4167L16.3333 17.575L17.575 16.3333L13.4167 12.1667ZM8.41667 12.1667C6.34167 12.1667 4.66667 10.4917 4.66667 8.41667C4.66667 6.34167 6.34167 4.66667 8.41667 4.66667C10.4917 4.66667 12.1667 6.34167 12.1667 8.41667C12.1667 10.4917 10.4917 12.1667 8.41667 12.1667Z" fill="#C2CFE0"/>
</svg>
