<svg width="32" height="33" viewBox="0 0 32 33" fill="none" xmlns="http://www.w3.org/2000/svg">
<path d="M28 15.1667C28 22.5667 22.88 29.4867 16 31.1667C9.12 29.4867 4 22.5667 4 15.1667V7.16671L16 1.83337L28 7.16671V15.1667ZM16 28.5C21 27.1667 25.3333 21.22 25.3333 15.46V8.90004L16 4.74004L6.66667 8.90004V15.46C6.66667 21.22 11 27.1667 16 28.5ZM19.7333 15.1667V13.1667C19.7333 11.3 17.8667 9.83337 16 9.83337C14.1333 9.83337 12.2667 11.3 12.2667 13.1667V15.1667C11.4667 15.1667 10.6667 15.9667 10.6667 16.7667V21.4334C10.6667 22.3667 11.4667 23.1667 12.2667 23.1667H19.6C20.5333 23.1667 21.3333 22.3667 21.3333 21.5667V16.9C21.3333 15.9667 20.5333 15.1667 19.7333 15.1667ZM18 15.1667H14V13.1667C14 12.1 14.9333 11.4334 16 11.4334C17.0667 11.4334 18 12.1 18 13.1667V15.1667Z" fill="#1876F2"/>
</svg>
