<svg width="20" height="20" viewBox="0 0 20 20" fill="none" xmlns="http://www.w3.org/2000/svg">
<path d="M17.5 9.16671C17.5 13.7917 14.3 18.1167 10 19.1667C5.7 18.1167 2.5 13.7917 2.5 9.16671V4.16671L10 0.833374L17.5 4.16671V9.16671ZM10 17.5C13.125 16.6667 15.8333 12.95 15.8333 9.35004V5.25004L10 2.65004L4.16667 5.25004V9.35004C4.16667 12.95 6.875 16.6667 10 17.5ZM12.3333 9.16671V7.91671C12.3333 6.75004 11.1667 5.83337 10 5.83337C8.83333 5.83337 7.66667 6.75004 7.66667 7.91671V9.16671C7.16667 9.16671 6.66667 9.66671 6.66667 10.1667V13.0834C6.66667 13.6667 7.16667 14.1667 7.66667 14.1667H12.25C12.8333 14.1667 13.3333 13.6667 13.3333 13.1667V10.25C13.3333 9.66671 12.8333 9.16671 12.3333 9.16671ZM11.25 9.16671H8.75V7.91671C8.75 7.25004 9.33333 6.83337 10 6.83337C10.6667 6.83337 11.25 7.25004 11.25 7.91671V9.16671Z" fill="#596473"/>
</svg>
