<svg width="20" height="20" viewBox="0 0 20 20" fill="none" xmlns="http://www.w3.org/2000/svg">
<path d="M10.0025 17.5C9.3925 17.5008 8.78167 17.135 8.60417 16.4025C8.5509 16.1827 8.44648 15.9785 8.29941 15.8067C8.15233 15.6348 7.96676 15.5001 7.75779 15.4135C7.54882 15.327 7.32236 15.291 7.09685 15.3084C6.87133 15.3259 6.65313 15.3964 6.46 15.5142C5.17417 16.2975 3.70167 14.8258 4.485 13.5392C4.60258 13.3461 4.67296 13.1281 4.6904 12.9027C4.70785 12.6773 4.67187 12.451 4.58539 12.2422C4.49892 12.0333 4.36438 11.8479 4.19273 11.7008C4.02107 11.5537 3.81714 11.4492 3.5975 11.3958C2.13417 11.0408 2.13417 8.95917 3.5975 8.60417C3.81733 8.5509 4.02148 8.44648 4.19333 8.29941C4.36518 8.15233 4.49988 7.96676 4.58645 7.75779C4.67303 7.54882 4.70904 7.32236 4.69156 7.09685C4.67407 6.87133 4.60359 6.65313 4.48583 6.46C3.7025 5.17417 5.17417 3.70167 6.46083 4.485C7.29417 4.99167 8.37417 4.54333 8.60417 3.5975C8.95917 2.13417 11.0408 2.13417 11.3958 3.5975C11.4491 3.81733 11.5535 4.02148 11.7006 4.19333C11.8477 4.36518 12.0332 4.49988 12.2422 4.58646C12.4512 4.67303 12.6776 4.70904 12.9032 4.69156C13.1287 4.67407 13.3469 4.60359 13.54 4.48583C14.8258 3.7025 16.2983 5.17417 15.515 6.46083C15.3974 6.65388 15.327 6.87195 15.3096 7.09731C15.2922 7.32267 15.3281 7.54897 15.4146 7.75782C15.5011 7.96666 15.6356 8.15215 15.8073 8.29921C15.9789 8.44627 16.1829 8.55075 16.4025 8.60417C17.1408 8.78333 17.5067 9.40167 17.5008 10.0158" stroke="#596473" stroke-width="2" stroke-linecap="round" stroke-linejoin="round"/>
<path d="M15.8342 17.5C15.3921 17.5 14.9682 17.3244 14.6557 17.0118C14.3431 16.6993 14.1675 16.2754 14.1675 15.8333C14.1675 15.3913 14.3431 14.9674 14.6557 14.6548C14.9682 14.3423 15.3921 14.1667 15.8342 14.1667M15.8342 17.5C16.2762 17.5 16.7001 17.3244 17.0127 17.0118C17.3252 16.6993 17.5008 16.2754 17.5008 15.8333C17.5008 15.3913 17.3252 14.9674 17.0127 14.6548C16.7001 14.3423 16.2762 14.1667 15.8342 14.1667M15.8342 17.5V18.75M15.8342 14.1667V12.9167M18.36 14.375L17.2775 15M14.3917 16.6667L13.3083 17.2917M13.3083 14.375L14.3917 15M17.2775 16.6667L18.3608 17.2917M7.5 10C7.5 10.663 7.76339 11.2989 8.23223 11.7678C8.70107 12.2366 9.33696 12.5 10 12.5C10.663 12.5 11.2989 12.2366 11.7678 11.7678C12.2366 11.2989 12.5 10.663 12.5 10C12.5 9.33696 12.2366 8.70107 11.7678 8.23223C11.2989 7.76339 10.663 7.5 10 7.5C9.33696 7.5 8.70107 7.76339 8.23223 8.23223C7.76339 8.70107 7.5 9.33696 7.5 10Z" stroke="#596473" stroke-width="2" stroke-linecap="round" stroke-linejoin="round"/>
</svg>
