<svg width="20" height="20" viewBox="0 0 20 20" fill="none" xmlns="http://www.w3.org/2000/svg">
<path d="M10.4167 7.70833C10.4167 7.54257 10.4825 7.3836 10.5997 7.26639C10.7169 7.14918 10.8759 7.08333 11.0417 7.08333H13.9583C14.1241 7.08333 14.2831 7.14918 14.4003 7.26639C14.5175 7.3836 14.5833 7.54257 14.5833 7.70833C14.5833 7.87409 14.5175 8.03306 14.4003 8.15027C14.2831 8.26748 14.1241 8.33333 13.9583 8.33333H11.0417C10.8759 8.33333 10.7169 8.26748 10.5997 8.15027C10.4825 8.03306 10.4167 7.87409 10.4167 7.70833ZM11.0417 11.6667C10.8759 11.6667 10.7169 11.7325 10.5997 11.8497C10.4825 11.9669 10.4167 12.1259 10.4167 12.2917C10.4167 12.4574 10.4825 12.6164 10.5997 12.7336C10.7169 12.8508 10.8759 12.9167 11.0417 12.9167H13.9583C14.1241 12.9167 14.2831 12.8508 14.4003 12.7336C14.5175 12.6164 14.5833 12.4574 14.5833 12.2917C14.5833 12.1259 14.5175 11.9669 14.4003 11.8497C14.2831 11.7325 14.1241 11.6667 13.9583 11.6667H11.0417ZM8.98333 7.31667C9.04474 7.25945 9.09399 7.19045 9.12815 7.11378C9.16231 7.03712 9.18068 6.95435 9.18216 6.87043C9.18364 6.78652 9.1682 6.70316 9.13677 6.62534C9.10533 6.54751 9.05855 6.47682 8.9992 6.41747C8.93985 6.35812 8.86915 6.31133 8.79133 6.2799C8.71351 6.24846 8.63015 6.23303 8.54623 6.23451C8.46231 6.23599 8.37955 6.25436 8.30288 6.28852C8.22622 6.32268 8.15722 6.37193 8.1 6.43333L6.875 7.65833L6.48333 7.26667C6.36485 7.15627 6.20815 7.09616 6.04623 7.09902C5.88431 7.10188 5.72983 7.16747 5.61531 7.28198C5.5008 7.39649 5.43521 7.55098 5.43235 7.7129C5.4295 7.87482 5.4896 8.03152 5.6 8.15L6.43333 8.98333C6.55052 9.10038 6.70937 9.16612 6.875 9.16612C7.04063 9.16612 7.19948 9.10038 7.31667 8.98333L8.98333 7.31667ZM8.98333 11.0167C9.10038 11.1339 9.16612 11.2927 9.16612 11.4583C9.16612 11.624 9.10038 11.7828 8.98333 11.9L7.31667 13.5667C7.19948 13.6837 7.04063 13.7494 6.875 13.7494C6.70937 13.7494 6.55052 13.6837 6.43333 13.5667L5.6 12.7333C5.53859 12.6761 5.48934 12.6071 5.45518 12.5304C5.42102 12.4538 5.40265 12.371 5.40117 12.2871C5.39969 12.2032 5.41513 12.1198 5.44656 12.042C5.478 11.9642 5.52479 11.8935 5.58413 11.8341C5.64348 11.7748 5.71418 11.728 5.792 11.6966C5.86983 11.6651 5.95318 11.6497 6.0371 11.6512C6.12102 11.6527 6.20378 11.671 6.28045 11.7052C6.35711 11.7393 6.42612 11.7886 6.48333 11.85L6.875 12.2417L8.1 11.0167C8.21719 10.8996 8.37604 10.8339 8.54167 10.8339C8.70729 10.8339 8.86615 10.8996 8.98333 11.0167ZM5.20833 2.5C4.49004 2.5 3.80116 2.78534 3.29325 3.29325C2.78534 3.80116 2.5 4.49004 2.5 5.20833V14.7917C2.5 15.51 2.78534 16.1988 3.29325 16.7067C3.80116 17.2147 4.49004 17.5 5.20833 17.5H14.7917C15.51 17.5 16.1988 17.2147 16.7067 16.7067C17.2147 16.1988 17.5 15.51 17.5 14.7917V5.20833C17.5 4.49004 17.2147 3.80116 16.7067 3.29325C16.1988 2.78534 15.51 2.5 14.7917 2.5H5.20833ZM3.75 5.20833C3.75 4.40333 4.40333 3.75 5.20833 3.75H14.7917C15.5967 3.75 16.25 4.40333 16.25 5.20833V14.7917C16.25 15.1784 16.0964 15.5494 15.8229 15.8229C15.5494 16.0964 15.1784 16.25 14.7917 16.25H5.20833C4.82156 16.25 4.45063 16.0964 4.17714 15.8229C3.90365 15.5494 3.75 15.1784 3.75 14.7917V5.20833Z" fill="#596473"/>
</svg>
