<svg width="32" height="33" viewBox="0 0 32 33" fill="none" xmlns="http://www.w3.org/2000/svg">
<path d="M12.0008 17.1667L8.66747 20.5L12.0008 23.8334L15.3341 20.5L12.0008 17.1667ZM20.0008 3.83337C17.8135 3.83341 15.7072 4.66048 14.1042 6.14868C12.5013 7.63687 11.5203 9.67613 11.3581 11.8574C9.70333 11.9804 8.11863 12.5759 6.79233 13.5731C5.46603 14.5703 4.45389 15.9273 3.87618 17.4829C3.29847 19.0385 3.17948 20.7272 3.53334 22.3484C3.8872 23.9696 4.69904 25.4551 5.87239 26.6284C7.04575 27.8018 8.53128 28.6136 10.1525 28.9675C11.7737 29.3214 13.4624 29.2024 15.018 28.6247C16.5735 28.047 17.9305 27.0348 18.9277 25.7085C19.925 24.3822 20.5205 22.7975 20.6435 21.1427C22.8798 20.9759 24.9644 19.9488 26.4593 18.2771C27.9541 16.6055 28.7428 14.4195 28.6596 12.1785C28.5764 9.93748 27.6278 7.81597 26.0131 6.25978C24.3984 4.70358 22.2433 3.83386 20.0008 3.83337ZM20.4315 18.4854C20.058 16.9282 19.2609 15.5046 18.1286 14.3723C16.9962 13.2399 15.5727 12.4429 14.0155 12.0694C14.0982 10.9224 14.5087 9.8234 15.1983 8.90314C15.8878 7.98288 16.8273 7.28014 17.9048 6.8786C18.9823 6.47706 20.1526 6.39362 21.2762 6.63822C22.3998 6.88282 23.4295 7.44515 24.2426 8.25827C25.0557 9.07139 25.618 10.101 25.8626 11.2247C26.1072 12.3483 26.0238 13.5185 25.6222 14.5961C25.2207 15.6736 24.518 16.613 23.5977 17.3026C22.6774 17.9921 21.5784 18.4027 20.4315 18.4854ZM18.0008 20.5C18.0008 22.0913 17.3687 23.6175 16.2434 24.7427C15.1182 25.8679 13.5921 26.5 12.0008 26.5C10.4095 26.5 8.88338 25.8679 7.75816 24.7427C6.63294 23.6175 6.0008 22.0913 6.0008 20.5C6.0008 18.9087 6.63294 17.3826 7.75816 16.2574C8.88338 15.1322 10.4095 14.5 12.0008 14.5C13.5921 14.5 15.1182 15.1322 16.2434 16.2574C17.3687 17.3826 18.0008 18.9087 18.0008 20.5ZM4.0008 9.83337C4.0008 8.41889 4.56271 7.06233 5.5629 6.06214C6.56309 5.06194 7.91965 4.50004 9.33414 4.50004H11.3341V7.16671H9.33414C8.62689 7.16671 7.94862 7.44766 7.44852 7.94776C6.94842 8.44785 6.66747 9.12613 6.66747 9.83337V11.8334H4.0008V9.83337ZM25.3341 23.1667V21.1667H28.0008V23.1667C28.0008 24.5812 27.4389 25.9377 26.4387 26.9379C25.4385 27.9381 24.082 28.5 22.6675 28.5H20.6675V25.8334H22.6675C23.3747 25.8334 24.053 25.5524 24.5531 25.0523C25.0532 24.5522 25.3341 23.874 25.3341 23.1667Z" fill="#1876F2"/>
</svg>
