<svg width="32" height="33" viewBox="0 0 32 33" fill="none" xmlns="http://www.w3.org/2000/svg">
<g clip-path="url(#clip0_4628_458)">
<path fill-rule="evenodd" clip-rule="evenodd" d="M14.0003 5.83329C13.6658 5.83323 13.3368 5.91869 13.0446 6.08155C12.7523 6.2444 12.5066 6.47925 12.3306 6.76379C12.1547 7.04833 12.0544 7.37312 12.0393 7.70732C12.0242 8.04152 12.0948 8.37404 12.2443 8.67329L12.4617 9.10663C12.5704 9.32373 12.6219 9.56508 12.611 9.80767C12.6001 10.0503 12.5273 10.286 12.3995 10.4925C12.2718 10.699 12.0932 10.8694 11.881 10.9874C11.6687 11.1054 11.4298 11.1671 11.187 11.1666H6.66699C6.31337 11.1666 5.97423 11.3071 5.72418 11.5571C5.47413 11.8072 5.33366 12.1463 5.33366 12.5V14.092C7.76033 13.9466 10.0003 15.8666 10.0003 18.5C10.0003 21.1333 7.76033 23.0533 5.33366 22.908V25.8333C5.33366 26.1869 5.47413 26.5261 5.72418 26.7761C5.97423 27.0261 6.31337 27.1666 6.66699 27.1666H9.59232C9.44699 24.74 11.367 22.5 14.0003 22.5C16.6337 22.5 18.5537 24.74 18.4083 27.1666H20.0003C20.3539 27.1666 20.6931 27.0261 20.9431 26.7761C21.1932 26.5261 21.3337 26.1869 21.3337 25.8333V21.3133C21.3337 20.2546 22.447 19.5666 23.3937 20.0386L23.8257 20.256C24.1249 20.4053 24.4573 20.4758 24.7914 20.4606C25.1255 20.4454 25.4502 20.3451 25.7347 20.1692C26.0191 19.9933 26.2539 19.7476 26.4167 19.4554C26.5795 19.1633 26.665 18.8344 26.665 18.5C26.665 18.1655 26.5795 17.8366 26.4167 17.5445C26.2539 17.2523 26.0191 17.0066 25.7347 16.8307C25.4502 16.6548 25.1255 16.5545 24.7914 16.5393C24.4573 16.5241 24.1249 16.5946 23.8257 16.744L23.3937 16.9613C23.1765 17.0701 22.9352 17.1215 22.6926 17.1106C22.45 17.0997 22.2142 17.0269 22.0077 16.8992C21.8012 16.7714 21.6309 16.5929 21.5129 16.3806C21.3949 16.1684 21.3332 15.9295 21.3337 15.6866V12.5C21.3337 12.1463 21.1932 11.8072 20.9431 11.5571C20.6931 11.3071 20.3539 11.1666 20.0003 11.1666H16.8137C15.755 11.1666 15.067 10.0533 15.539 9.10663L15.7563 8.67329C15.9059 8.37404 15.9764 8.04152 15.9613 7.70732C15.9462 7.37312 15.8459 7.04833 15.67 6.76379C15.4941 6.47925 15.2483 6.2444 14.9561 6.08155C14.6639 5.91869 14.3349 5.83323 14.0003 5.83329ZM9.41899 8.49996C8.99766 5.81063 11.059 3.16663 14.0003 3.16663C16.9403 3.16663 19.003 5.81063 18.5817 8.49996H20.0003C21.0612 8.49996 22.0786 8.92139 22.8288 9.67153C23.5789 10.4217 24.0003 11.4391 24.0003 12.5V13.9186C26.6897 13.4973 29.3337 15.5586 29.3337 18.5C29.3337 21.44 26.6897 23.5026 24.0003 23.0813V25.8333C24.0003 26.8942 23.5789 27.9116 22.8288 28.6617C22.0786 29.4119 21.0612 29.8333 20.0003 29.8333H16.791C16.5566 29.8336 16.3259 29.7756 16.1194 29.6646C15.913 29.5536 15.7374 29.3931 15.6084 29.1974C15.4793 29.0018 15.4009 28.7771 15.3802 28.5437C15.3595 28.3102 15.3971 28.0753 15.4897 27.86L15.603 27.5973C15.7168 27.332 15.763 27.0426 15.7375 26.7551C15.7119 26.4676 15.6154 26.1909 15.4565 25.9498C15.2977 25.7088 15.0815 25.511 14.8273 25.3741C14.5732 25.2372 14.289 25.1655 14.0003 25.1655C13.7117 25.1655 13.4275 25.2372 13.1733 25.3741C12.9192 25.511 12.703 25.7088 12.5441 25.9498C12.3853 26.1909 12.2887 26.4676 12.2632 26.7551C12.2376 27.0426 12.2838 27.332 12.3977 27.5973L12.511 27.8613C12.911 28.7946 12.2257 29.8333 11.2097 29.8333H6.66699C5.60613 29.8333 4.58871 29.4119 3.83857 28.6617C3.08842 27.9116 2.66699 26.8942 2.66699 25.8333V21.2906C2.66699 20.2746 3.70566 19.5893 4.64033 19.9893L4.90299 20.1026C5.16827 20.2165 5.45765 20.2627 5.74519 20.2371C6.03273 20.2115 6.30942 20.115 6.55045 19.9561C6.79149 19.7973 6.98932 19.5811 7.1262 19.3269C7.26308 19.0728 7.33474 18.7886 7.33474 18.5C7.33474 18.2113 7.26308 17.9271 7.1262 17.673C6.98932 17.4188 6.79149 17.2026 6.55045 17.0438C6.30942 16.8849 6.03273 16.7884 5.74519 16.7628C5.45765 16.7372 5.16827 16.7835 4.90299 16.8973L4.63899 17.0106C3.70566 17.4106 2.66699 16.7253 2.66699 15.7093V12.5C2.66699 11.4391 3.08842 10.4217 3.83857 9.67153C4.58871 8.92139 5.60613 8.49996 6.66699 8.49996H9.41899Z" fill="#1876F2"/>
</g>
<defs>
<clipPath id="clip0_4628_458">
<rect width="32" height="32" fill="white" transform="translate(0 0.5)"/>
</clipPath>
</defs>
</svg>
