<svg width="9" height="10" viewBox="0 0 9 10" fill="none" xmlns="http://www.w3.org/2000/svg">
<path d="M1.12522 7.62498H7.87522C7.94356 7.62476 8.01054 7.60592 8.06897 7.57046C8.12739 7.53501 8.17504 7.48429 8.20679 7.42377C8.23853 7.36325 8.25317 7.29522 8.24913 7.227C8.24509 7.15878 8.22251 7.09295 8.18384 7.0366L4.80884 2.1616C4.66897 1.95948 4.33222 1.95948 4.19197 2.1616L0.816965 7.0366C0.777899 7.09283 0.75499 7.15869 0.750727 7.22703C0.746464 7.29536 0.761009 7.36356 0.792783 7.42421C0.824557 7.48485 0.872344 7.53564 0.930952 7.57103C0.98956 7.60643 1.05675 7.62509 1.12522 7.62498Z" fill="#ADB3C7"/>
</svg>
