<svg width="20" height="20" viewBox="0 0 20 20" fill="none" xmlns="http://www.w3.org/2000/svg">
<path d="M1.66602 18.3334C1.66602 16.5653 2.36839 14.8696 3.61864 13.6193C4.86888 12.3691 6.56457 11.6667 8.33268 11.6667C10.1008 11.6667 11.7965 12.3691 13.0467 13.6193C14.297 14.8696 14.9993 16.5653 14.9993 18.3334H13.3327C13.3327 17.0073 12.8059 15.7355 11.8682 14.7978C10.9305 13.8602 9.65876 13.3334 8.33268 13.3334C7.0066 13.3334 5.73483 13.8602 4.79715 14.7978C3.85947 15.7355 3.33268 17.0073 3.33268 18.3334H1.66602ZM8.33268 10.8334C5.57018 10.8334 3.33268 8.59587 3.33268 5.83337C3.33268 3.07087 5.57018 0.833374 8.33268 0.833374C11.0952 0.833374 13.3327 3.07087 13.3327 5.83337C13.3327 8.59587 11.0952 10.8334 8.33268 10.8334ZM8.33268 9.16671C10.1743 9.16671 11.666 7.67504 11.666 5.83337C11.666 3.99171 10.1743 2.50004 8.33268 2.50004C6.49102 2.50004 4.99935 3.99171 4.99935 5.83337C4.99935 7.67504 6.49102 9.16671 8.33268 9.16671ZM15.236 12.2525C16.4071 12.78 17.401 13.6344 18.0982 14.7131C18.7953 15.7919 19.1661 17.049 19.166 18.3334H17.4993C17.4995 17.37 17.2215 16.4271 16.6986 15.618C16.1757 14.8089 15.4302 14.1681 14.5518 13.7725L15.236 12.2525ZM14.6627 2.84421C15.5023 3.19029 16.2202 3.77799 16.7252 4.53273C17.2302 5.28748 17.4997 6.17524 17.4993 7.08337C17.4997 8.22698 17.0724 9.3294 16.3015 10.1741C15.5305 11.0187 14.4716 11.5446 13.3327 11.6484V9.97087C13.9501 9.88244 14.523 9.59839 14.9671 9.16042C15.4112 8.72246 15.7033 8.15364 15.8003 7.53749C15.8974 6.92133 15.7943 6.29029 15.5063 5.737C15.2183 5.18372 14.7606 4.73733 14.2002 4.46337L14.6627 2.84421Z" fill="#596473"/>
</svg>
