<svg width="24" height="25" viewBox="0 0 24 25" fill="none" xmlns="http://www.w3.org/2000/svg">
<g clip-path="url(#clip0_5204_12010)">
<path fill-rule="evenodd" clip-rule="evenodd" d="M12 2.5C17.523 2.5 22 6.977 22 12.5C22.0035 14.8079 21.2054 17.0454 19.742 18.83L19.762 18.852L19.63 18.964C18.6922 20.0732 17.5236 20.9643 16.2057 21.5751C14.8879 22.1858 13.4525 22.5015 12 22.5C9.05001 22.5 6.40001 21.223 4.57001 19.193L4.37001 18.963L4.23801 18.853L4.25801 18.829C2.79477 17.0447 1.99663 14.8076 2.00001 12.5C2.00001 6.977 6.47701 2.5 12 2.5ZM12 17.5C10.14 17.5 8.45901 18.092 7.20701 18.906C8.58943 19.9433 10.2717 20.5027 12 20.5C13.7283 20.5027 15.4106 19.9433 16.793 18.906C15.3624 17.9893 13.6992 17.5014 12 17.5ZM12 4.5C10.4945 4.49996 9.0196 4.92471 7.74473 5.72545C6.46987 6.52619 5.44682 7.6704 4.79317 9.02657C4.13953 10.3827 3.88181 11.8958 4.04966 13.3919C4.21751 14.888 4.8041 16.3064 5.74201 17.484C7.36301 16.321 9.57501 15.5 12 15.5C14.425 15.5 16.637 16.321 18.258 17.484C19.1959 16.3064 19.7825 14.888 19.9504 13.3919C20.1182 11.8958 19.8605 10.3827 19.2069 9.02657C18.5532 7.6704 17.5302 6.52619 16.2553 5.72545C14.9804 4.92471 13.5055 4.49996 12 4.5ZM12 6.5C13.0609 6.5 14.0783 6.92143 14.8284 7.67157C15.5786 8.42172 16 9.43913 16 10.5C16 11.5609 15.5786 12.5783 14.8284 13.3284C14.0783 14.0786 13.0609 14.5 12 14.5C10.9391 14.5 9.92173 14.0786 9.17158 13.3284C8.42144 12.5783 8.00001 11.5609 8.00001 10.5C8.00001 9.43913 8.42144 8.42172 9.17158 7.67157C9.92173 6.92143 10.9391 6.5 12 6.5ZM12 8.5C11.4696 8.5 10.9609 8.71071 10.5858 9.08579C10.2107 9.46086 10 9.96957 10 10.5C10 11.0304 10.2107 11.5391 10.5858 11.9142C10.9609 12.2893 11.4696 12.5 12 12.5C12.5304 12.5 13.0392 12.2893 13.4142 11.9142C13.7893 11.5391 14 11.0304 14 10.5C14 9.96957 13.7893 9.46086 13.4142 9.08579C13.0392 8.71071 12.5304 8.5 12 8.5Z" fill="#C2CFE0"/>
</g>
<defs>
<clipPath id="clip0_5204_12010">
<rect width="24" height="24" fill="white" transform="translate(0 0.5)"/>
</clipPath>
</defs>
</svg>
